# AST/ASF file generated using VICON BodyLanguage
# -----------------------------------------------
:version 1.10
:name VICON
:units
  mass 1.0
  length 0.45
  angle deg
:documentation
   .ast/.asf automatically generated from VICON data using
   VICON BodyBuilder and BodyLanguage model FoxedUp or BRILLIANT.MOD
:root
   order TX TY TZ RX RY RZ
   axis XYZ
   position 0 0 0  
   orientation 0 0 0 
:bonedata
  begin
     id 1 
     name lhipjoint
     direction 0.560651 -0.75055 0.34978 
     length 2.44936 
     axis 0 0 0  XYZ
  end
  begin
     id 2 
     name lfemur
     direction 0.34202 -0.939693 0  
     length 7.42139  
     axis 0 0 20  XYZ
    dof rx ry rz
    limits (-160.0 20.0)
           (-70.0 70.0)
           (-60.0 70.0)
  end
  begin
     id 3 
     name ltibia
     direction 0.34202 -0.939693 0   
     length 7.75674   
     axis 0 0 20   XYZ
    dof rx
    limits (-10.0 170.0)
  end
  begin
     id 4 
     name lfoot
     direction 0.0925879 -0.254383 0.962661   
     length 2.38688   
     axis -90 7.62852e-016 20   XYZ
    dof rx rz
    limits (-45.0 90.0)
           (-70.0 20.0)
  end
  begin
     id 5 
     name ltoes
     direction 1.53567e-011 -4.21973e-011 1   
     length 1.19228   
     axis -90 7.62852e-016 20   XYZ
    dof rx
    limits (-90.0 20.0)
  end
  begin
     id 6 
     name rhipjoint
     direction -0.540087 -0.762838 0.355506   
     length 2.4099  
     axis 0 0 0  XYZ 
  end
  begin
     id 7 
     name rfemur
     direction -0.34202 -0.939693 0   
     length 7.70794   
     axis 0 0 -20   XYZ
    dof rx ry rz
    limits (-160.0 20.0)
           (-70.0 70.0)
           (-70.0 60.0)
  end
  begin
     id 8 
     name rtibia
     direction -0.34202 -0.939693 0   
     length 7.66106   
     axis 0 0 -20   XYZ
    dof rx
    limits (-10.0 170.0)
 end
 begin
     id 9 
     name rfoot
     direction -0.0830975 -0.228308 0.970036   
     length 2.4989  
     axis -90 -7.62852e-016 -20   XYZ
    dof rx rz
    limits (-45.0 90.0)
           (-20.0 70.0)
  end
  begin
     id 10 
     name rtoes
     direction -1.53517e-011 -4.21842e-011 1   
     length 1.2498   
     axis -90 -7.62852e-016 -20   XYZ
    dof rx
    limits (-90.0 20.0)
  end
  begin
     id 11 
     name lowerback
     direction 0.0266356 0.99402 -0.105896   
     length 2.1545   
     axis 0 0 0   XYZ
    dof rx ry rz
    limits (-20.0 45.0)
           (-30.0 30.0)
           (-30.0 30.0)
  end
  begin
     id 12 
     name upperback
     direction 0.0130547 0.999192 0.0380027   
     length 2.1434   
     axis 0 0 0   XYZ
    dof rx ry rz
    limits (-20.0 45.0)
           (-30.0 30.0)
           (-30.0 30.0)
  end
  begin
     id 13 
     name thorax
     direction 0.000590299 0.996288 0.0860764   
     length 2.19049   
     axis 0 0 0   XYZ
    dof rx ry rz
    limits (-20.0 45.0)
           (-30.0 30.0)
           (-30.0 30.0)
  end
  begin
     id 14 
     name lowerneck
     direction -0.0432125 0.978219 0.203028   
     length 1.62441   
     axis 0 0 0   XYZ
    dof rx ry rz
    limits (-20.0 45.0)
           (-30.0 30.0)
           (-30.0 30.0)
  end
  begin
     id 15 
     name upperneck
     direction -0.0192309 0.991699 -0.127138   
     length 1.66666   
     axis 0 0 0   XYZ
    dof rx ry rz
    limits (-20.0 45.0)
           (-30.0 30.0)
           (-30.0 30.0)
  end
  begin
     id 16
     name head
     direction -0.00434499 0.997882 -0.0649107  
     length 1.67142  
     axis 0 0 0   XYZ
    dof rx ry rz
    limits (-20.0 45.0)
           (-30.0 30.0)
           (-30.0 30.0)
  end
  begin
     id 17 
     name lclavicle
     direction 0.970351 0.240904 -0.0196058  
     length 4.04862  
     axis 0 0 0   XYZ
    dof ry rz
    limits (-20.0 10.0)
           (0.0 20.0)
  end
  begin
     id 18 
     name lhumerus
     direction 1 -4.4896e-011 -1.40911e-018   
     length 5.58345   
     axis 180 -30 -90   XYZ
    dof rx ry rz
    limits (-60.0 90.0)
           (-90.0 90.0)
           (-90.0 90.0)
  end
  begin
     id 19
     name lradius
     direction 1 -4.48968e-011 5.88912e-028   
     length 3.71087   
     axis 180 -30 -90   XYZ
    dof rx
    limits (-10.0 170.0)
  end
  begin
     id 20
     name lwrist
     direction 1 -4.48955e-011 -8.83775e-028   
     length 1.85544   
     axis 5.52448e-016 90 90   XYZ
    dof ry
    limits (-180.0 0.0)
 end
  begin
     id 21 
     name lhand
     direction 1 -4.49035e-011 -1.76755e-027   
     length 0.562322   
     axis 1.12785e-015 90 90   XYZ
    dof rx rz
    limits (-90.0 90.0)
           (-45.0 45.0)
  end
  begin
     id 22 
     name lfingers
     direction 1 -4.48824e-011 -3.5351e-027   
     length 0.453359   
     axis 2.2557e-015 90 90   XYZ
    dof rx
    limits (0.0 90.0)
  end
  begin
     id 23
     name lthumb
     direction 0.707107 -6.34888e-011 0.707107   
     length 0.650935   
     axis -90 45 2.85299e-015   XYZ
    dof rx rz
    limits (-45.0 45.0)
           (-45.0 45.0)
  end
  begin
     id 24 
     name rclavicle
     direction -0.96165 0.268562 -0.0557131   
     length 4.05446  
     axis 0 0 0   XYZ 
    dof ry rz
    limits (-10.0 20.0)
           (-20.0 0.0)
  end
  begin
     id 25 
     name rhumerus
     direction -1 -4.48957e-011 -3.36329e-027  
     length 5.20357   
     axis 180 30 90   XYZ
    dof rx ry rz
    limits (-90.0 60.0)
           (-90.0 90.0)
           (-90.0 90.0)
  end
  begin
     id 26 
     name rradius
     direction -1 -4.48974e-011 4.51441e-027   
     length 3.64937   
     axis 180 30 90   XYZ
    dof rx
    limits (-10.0 170.0)
  end
  begin
     id 27 
     name rwrist
     direction -1 -4.4896e-011 -8.83775e-028   
     length 1.82468   
     axis 5.52448e-016 -90 -90   XYZ
    dof ry
    limits (-180.0 0.0)
  end
  begin
     id 28
     name rhand
     direction -1 -4.48996e-011 -1.76755e-027   
     length 0.617996   
     axis 1.12785e-015 -90 -90   XYZ
    dof rx rz
    limits (-90.0 90.0)
           (-45.0 45.0)
  end
  begin
     id 29
     name rfingers
     direction -1 -4.48957e-011 -3.5351e-027   
     length 0.498244   
     axis 2.2557e-015 -90 -90   XYZ
    dof rx
    limits (0.0 90.0)
  end
  begin
     id 30
     name rthumb
     direction -0.707107 -6.34931e-011 0.707107   
     length 0.715382   
     axis -90 -45 -2.85299e-015   XYZ
    dof rx rz
    limits (-45.0 45.0)
           (-45.0 45.0)
  end
:hierarchy
  begin
    root lhipjoint rhipjoint lowerback
    lhipjoint lfemur
    lfemur ltibia
    ltibia lfoot
    lfoot ltoes
    rhipjoint rfemur
    rfemur rtibia
    rtibia rfoot
    rfoot rtoes
    lowerback upperback
    upperback thorax
    thorax lowerneck lclavicle rclavicle
    lowerneck upperneck
    upperneck head
    lclavicle lhumerus
    lhumerus lradius
    lradius lwrist
    lwrist lhand lthumb
    lhand lfingers
    rclavicle rhumerus
    rhumerus rradius
    rradius rwrist
    rwrist rhand rthumb
    rhand rfingers
  end

#!OML:ASF H:\ManfredETheater\Project 1\Capture day 2\Session 1\Male1.ASF
:FULLY-SPECIFIED
:DEGREES
284
root -13.1176 17.5917 -29.4204 187.695 -20.2444 -173.585
lowerback 12.3537 -0.2442 4.25481
upperback -1.48592 0.44899 3.11846
thorax -8.54178 0.0392196 0.849126
lowerneck -23.6453 -0.887379 -2.07396
upperneck 10.6593 -0.757998 0.902951
head 7.08069 -0.393727 0.531033
rclavicle 1.22253e-014 1.66979e-014
rhumerus -39.3279 -3.4763 -81.1903
rradius 61.9244
rwrist -4.86722
rhand -30.0108 -9.4142
rfingers 7.12502
rthumb -3.32788 -39.368
lclavicle 1.22253e-014 1.66979e-014
lhumerus -36.7378 -6.32395 88.9465
lradius 66.0813
lwrist 2.56837
lhand -19.9072 3.15545
lfingers 7.12502
lthumb 6.42944 33.0379
rfemur -22.1993 -2.97353 19.3637
rtibia 41.9471
rfoot -21.1139 -0.915031
rtoes -14.5994
lfemur -12.7072 2.85093 -14.6238
ltibia 37.174
lfoot -27.0818 11.3697
ltoes -3.95381
285
root -13.1323 17.5778 -29.454 187.959 -20.0355 -173.729
lowerback 12.4324 -0.239736 4.16494
upperback -1.50203 0.448573 3.13218
thorax -8.60519 0.042881 0.915471
lowerneck -23.7844 -0.843628 -2.1342
upperneck 10.7829 -0.690975 0.989908
head 7.14318 -0.355303 0.577842
rclavicle 9.14409e-015 3.65764e-014
rhumerus -39.1264 -3.35061 -81.5365
rradius 63.1741
rwrist -4.8705
rhand -30.0948 -8.97096
rfingers 7.12502
rthumb -3.40903 -38.9234
lclavicle 9.14409e-015 3.65764e-014
lhumerus -36.4198 -6.76487 89.1176
lradius 66.4672
lwrist 3.22972
lhand -20.1939 3.03475
lfingers 7.12502
lthumb 6.15267 32.9254
rfemur -22.6534 -3.09582 19.2606
rtibia 42.5548
rfoot -21.3081 -0.913889
rtoes -14.5948
lfemur -12.6971 3.00359 -14.8351
ltibia 37.0576
lfoot -27.2909 11.5398
ltoes -4.00224
286
root -13.1463 17.5637 -29.487 188.24 -19.8157 -173.901
lowerback 12.5259 -0.231059 4.05004
upperback -1.51244 0.45019 3.12773
thorax -8.67087 0.0488885 0.976018
lowerneck -23.9036 -0.804714 -2.15461
upperneck 10.8976 -0.639473 1.05343
head 7.19958 -0.324816 0.608766
rclavicle -3.02153e-014 -1.59028e-015
rhumerus -38.9164 -3.23429 -81.9114
rradius 64.3832
rwrist -4.84478
rhand -30.1687 -8.54388
rfingers 7.12502
rthumb -3.48039 -38.4952
lclavicle -3.02153e-014 -1.59028e-015
lhumerus -36.0777 -7.25076 89.2796
lradius 66.8386
lwrist 3.8069
lhand -20.4742 2.90793
lfingers 7.12502
lthumb 5.88203 32.8063
rfemur -23.1792 -3.2677 19.1437
rtibia 43.2721
rfoot -21.4732 -0.915095
rtoes -14.6302
lfemur -12.7033 3.1695 -15.066
ltibia 36.9512
lfoot -27.4888 11.6559
ltoes -4.05437
287
root -13.1589 17.5493 -29.5193 188.532 -19.5875 -174.099
lowerback 12.6467 -0.219363 3.90751
upperback -1.51691 0.452432 3.10575
thorax -8.74578 0.0566141 1.0333
lowerneck -24.0078 -0.769727 -2.12614
upperneck 10.996 -0.60389 1.08422
head 7.24819 -0.303072 0.619079
rclavicle 4.33351e-014 1.47101e-014
rhumerus -38.6983 -3.12448 -82.3125
rradius 65.5395
rwrist -4.76913
rhand -30.2467 -8.11128
rfingers 7.12502
rthumb -3.55569 -38.0614
lclavicle 4.33351e-014 1.47101e-014
lhumerus -35.7073 -7.77047 89.4279
lradius 67.2019
lwrist 4.26693
lhand -20.7304 2.78122
lfingers 7.12502
lthumb 5.63461 32.6863
rfemur -23.7802 -3.48426 19.0185
rtibia 44.1104
rfoot -21.6004 -0.934075
rtoes -14.709
lfemur -12.721 3.34828 -15.3118
ltibia 36.8506
lfoot -27.6749 11.7117
ltoes -4.11182
288
root -13.1704 17.5346 -29.5514 188.833 -19.3562 -174.325
lowerback 12.7936 -0.207622 3.74264
upperback -1.51814 0.451801 3.06333
thorax -8.8321 0.0640698 1.08193
lowerneck -24.0781 -0.738158 -2.05114
upperneck 11.0694 -0.583531 1.08445
head 7.28319 -0.289599 0.609889
rclavicle 5.64548e-014 1.59028e-014
rhumerus -38.487 -3.01389 -82.7385
rradius 66.638
rwrist -4.63937
rhand -30.3396 -7.66881
rfingers 7.12502
rthumb -3.64539 -37.6174
lclavicle 5.64548e-014 1.59028e-014
lhumerus -35.3198 -8.31292 89.5586
lradius 67.5689
lwrist 4.59102
lhand -20.9586 2.62659
lfingers 7.12502
lthumb 5.41433 32.5374
rfemur -24.456 -3.75199 18.8856
rtibia 45.077
rfoot -21.685 -0.978901
rtoes -14.8119
lfemur -12.7451 3.52953 -15.5754
ltibia 36.7516
lfoot -27.8368 11.7324
ltoes -4.26532
289
root -13.1807 17.5196 -29.5831 189.144 -19.1214 -174.569
lowerback 12.9607 -0.195486 3.56434
upperback -1.51117 0.449109 3.00474
thorax -8.9211 0.0712276 1.1212
lowerneck -24.1164 -0.709164 -1.91904
upperneck 11.1026 -0.578555 1.03963
head 7.29969 -0.285634 0.574544
rclavicle 3.73715e-014 -1.23246e-014
rhumerus -38.2712 -2.89516 -83.1855
rradius 67.6656
rwrist -4.44198
rhand -30.4696 -7.19909
rfingers 7.12502
rthumb -3.77091 -37.1455
lclavicle 3.73715e-014 -1.23246e-014
lhumerus -34.8966 -8.86434 89.669
lradius 67.9398
lwrist 4.78255
lhand -21.148 2.42422
lfingers 7.12502
lthumb 5.23142 32.3396
rfemur -25.2149 -4.06292 18.7612
rtibia 46.1753
rfoot -21.714 -1.07167
rtoes -14.9105
lfemur -12.7775 3.70308 -15.8476
ltibia 36.6517
lfoot -27.9908 11.7195
ltoes -4.4141
290
root -13.19 17.5044 -29.6148 189.456 -18.8855 -174.817
lowerback 13.1501 -0.182368 3.38818
upperback -1.49186 0.447024 2.93239
thorax -9.00927 0.0784726 1.1443
lowerneck -24.1659 -0.688201 -1.78117
upperneck 11.1192 -0.58811 1.00274
head 7.31266 -0.28774 0.538981
rclavicle -2.9122e-014 6.36111e-015
rhumerus -38.0495 -2.76856 -83.6452
rradius 68.6173
rwrist -4.1661
rhand -30.6507 -6.73334
rfingers 7.12502
rthumb -3.94584 -36.6765
lclavicle -2.9122e-014 6.36111e-015
lhumerus -34.427 -9.41926 89.7596
lradius 68.3218
lwrist 4.86526
lhand -21.2953 2.16334
lfingers 7.12502
lthumb 5.08925 32.0822
rfemur -26.0539 -4.41969 18.6631
rtibia 47.4033
rfoot -21.6771 -1.23119
rtoes -14.9846
lfemur -12.8118 3.86275 -16.1185
ltibia 36.5484
lfoot -28.1412 11.6902
ltoes -4.57117
